<?xml version="1.0" encoding="UTF-8" standalone="no" ?>
<!DOCTYPE svg PUBLIC "-//W3C//DTD SVG 1.1//EN" "http://www.w3.org/Graphics/SVG/1.1/DTD/svg11.dtd">
<svg xmlns="http://www.w3.org/2000/svg" xmlns:xlink="http://www.w3.org/1999/xlink" version="1.1" width="100" height="100" viewBox="0 0 100 100" xml:space="preserve">
<desc>Created with Fabric.js 4.2.0</desc>
<defs>
</defs>
<rect x="0" y="0" width="100%" height="100%" fill="transparent"></rect>
<g transform="matrix(Infinity NaN NaN Infinity 0 0)" id="910fc979-9930-4b0a-888f-772a62848836"  >
</g>
<g transform="matrix(1 0 0 1 50 50)" id="302b660b-db22-409c-a636-2844d42b1fc1"  >
<rect style="stroke: none; stroke-width: 1; stroke-dasharray: none; stroke-linecap: butt; stroke-dashoffset: 0; stroke-linejoin: miter; stroke-miterlimit: 4; fill: rgb(255,255,255); fill-rule: nonzero; opacity: 1;" vector-effect="non-scaling-stroke"  x="-50" y="-50" rx="0" ry="0" width="100" height="100" />
</g>
<g transform="matrix(4.85 0 0 4.16 50 49.91)"  >
<g style="" vector-effect="non-scaling-stroke"   >
		<g transform="matrix(1 0 0 1 3.44 -3.43)"  >
<path style="stroke: none; stroke-width: 1; stroke-dasharray: none; stroke-linecap: butt; stroke-dashoffset: 0; stroke-linejoin: miter; stroke-miterlimit: 4; fill: rgb(0,0,0); fill-rule: nonzero; opacity: 1;" vector-effect="non-scaling-stroke"  transform=" translate(-12.44, -6.57)" d="M 8.375 0.625 L 8.375 12.5184 C 8.58333 12.5061 8.79167 12.5 9 12.5 C 9.20833 12.5 9.41667 12.5061 9.625 12.5184 L 9.625 7.90234 L 16.5 4.375 L 8.375 0.625 Z" stroke-linecap="round" />
</g>
		<g transform="matrix(1 0 0 1 0 5.94)"  >
<path style="stroke: none; stroke-width: 1; stroke-dasharray: none; stroke-linecap: butt; stroke-dashoffset: 0; stroke-linejoin: miter; stroke-miterlimit: 4; fill: rgb(0,0,0); fill-rule: nonzero; opacity: 1;" vector-effect="non-scaling-stroke"  transform=" translate(-9, -15.94)" d="M 17.0824 17.8711 C 16.7488 16.1973 15.7153 14.7953 14.0895 13.8164 C 12.8227 13.0527 11.2563 12.5938 9.62502 12.5 L 9.62502 16.2418 L 8.37502 16.2418 L 8.37502 12.5 C 6.7426 12.5938 5.17619 13.0527 3.90939 13.8164 C 2.28478 14.7953 1.25002 16.1973 0.916423 17.8711 C 0.838298 18.2543 0.889861 19.375 0.889861 19.375 L 17.109 19.375 C 17.109 19.375 17.159 18.2543 17.0824 17.8711 Z" stroke-linecap="round" />
</g>
</g>
</g>
</svg>